<?xml version="1.0" standalone="no"?>
<!DOCTYPE svg PUBLIC "-//W3C//DTD SVG 20010904//EN"
 "http://www.w3.org/TR/2001/REC-SVG-20010904/DTD/svg10.dtd">
<svg version="1.0" xmlns="http://www.w3.org/2000/svg"
 width="500.000000pt" height="500.000000pt" viewBox="0 0 500.000000 500.000000"
 preserveAspectRatio="xMidYMid meet">
<metadata>
Created by potrace 1.14, written by Peter Selinger 2001-2017
</metadata>
<g transform="translate(0.000000,500.000000) scale(0.100000,-0.100000)"
fill="#000000" stroke="none">
<path d="M2250 4989 c-1145 -124 -2053 -993 -2225 -2129 -22 -148 -30 -429
-16 -580 56 -593 307 -1127 725 -1546 387 -386 864 -627 1406 -709 148 -22
429 -30 580 -16 593 56 1127 307 1546 725 386 387 627 864 709 1406 22 148 30
429 16 580 -47 489 -235 960 -538 1340 -89 113 -275 298 -393 392 -343 274
-760 455 -1200 523 -125 19 -487 28 -610 14z m1793 -1143 c68 -33 130 -93 165
-161 24 -44 27 -61 27 -150 0 -95 -2 -103 -34 -163 -42 -76 -109 -139 -249
-232 -261 -173 -466 -195 -513 -53 -18 56 -6 212 25 318 33 112 122 296 171
353 100 116 275 154 408 88z m-920 -264 c76 -38 129 -92 166 -171 35 -75 36
-209 3 -284 -78 -174 -322 -423 -463 -473 -168 -59 -253 58 -253 346 1 206 39
381 105 476 92 135 288 182 442 106z m-781 -480 c192 -93 259 -318 150 -502
-73 -122 -275 -302 -416 -369 -131 -63 -219 -49 -266 44 -69 136 -12 535 102
705 41 62 89 100 164 131 68 27 200 22 266 -9z m1156 -291 c65 -33 118 -87
149 -149 57 -117 28 -270 -67 -356 -82 -74 -107 -81 -280 -80 -133 1 -169 5
-253 27 -267 71 -333 183 -196 332 75 81 244 182 394 235 79 27 190 24 253 -9z
m-2036 -31 c59 -22 137 -79 172 -125 15 -19 39 -61 54 -93 24 -50 27 -70 27
-157 0 -92 -3 -105 -33 -169 -57 -121 -237 -268 -452 -370 -117 -55 -197 -76
-287 -76 -80 0 -123 22 -156 78 -74 126 24 503 194 754 109 160 305 224 481
158z m1310 -445 c154 -77 235 -245 194 -405 -29 -111 -88 -184 -196 -241 -41
-22 -56 -24 -185 -23 -117 0 -157 4 -245 26 -239 60 -380 150 -397 251 -21
131 238 323 550 408 100 27 205 21 279 -16z m-1011 -425 c128 -24 229 -101
286 -218 36 -73 38 -80 38 -177 0 -97 -2 -104 -38 -177 -81 -165 -232 -240
-437 -217 -287 32 -600 173 -665 300 -26 49 -19 119 16 172 79 119 372 267
619 312 95 17 115 17 181 5z"/>
</g>
</svg>
